<svg xmlns="http://www.w3.org/2000/svg" width="24" height="24" fill="#0277bd" class="text-blue-700" viewBox="0 0 24 24">
  <path d="M19 0h-14c-2.761 0-5 2.239-5 5v14c0 2.762 2.239 5 5 5h14c2.761 
  0 5-2.238 5-5v-14c0-2.761-2.239-5-5-5zm-11 19h-3v-10h3v10zm-1.5-11.268c-.966 
  0-1.75-.79-1.75-1.764s.784-1.764 
  1.75-1.764 1.75.79 1.75 1.764-.784 1.764-1.75 
  1.764zm13.5 11.268h-3v-5.604c0-1.337-.026-3.061-1.865-3.061-1.867 
  0-2.154 1.459-2.154 2.968v5.697h-3v-10h2.881v1.367h.041c.401-.761 
  1.379-1.561 2.839-1.561 3.034 0 3.595 1.997 
  3.595 4.59v5.604z"/>
</svg>
