<svg version="1.1" xmlns="http://www.w3.org/2000/svg" width="332px" height="60px" transform="rotate(0) scale(1, 1)">
<path d="M0 0 C109.56 0 219.12 0 332 0 C332 19.8 332 39.6 332 60 C222.44 60 112.88 60 0 60 C0 40.2 0 20.4 0 0 Z " fill="#f1f2f221" transform="translate(0,0)"/>
<path d="M0 0 C14.52 0 29.04 0 44 0 C51 13 51 13 51 15 C51.66 15 52.32 15 53 15 C53.18175781 14.41992188 53.36351562 13.83984375 53.55078125 13.2421875 C55.0418106 8.60852707 56.68333576 4.30237645 59 0 C63.29 0 67.58 0 72 0 C70.45321242 3.86696894 68.81772567 7.48035935 66.953125 11.19140625 C66.65944031 11.77736069 66.36575562 12.36331512 66.06317139 12.96702576 C65.12733638 14.83313895 64.18873849 16.69784599 63.25 18.5625 C62.6352294 19.78701538 62.02064458 21.01162404 61.40625 22.23632812 C60.19689366 24.64646466 58.98653349 27.0560928 57.77539062 29.46533203 C55.17630183 34.63992053 52.5880704 39.81988977 50 45 C45.71 45 41.42 45 37 45 C38.81583031 40.46042423 40.8734429 36.17456237 43.07421875 31.81640625 C44.49909046 27.48166996 43.83301656 24.74228882 41.87719727 20.65161133 C40.44660505 17.94544776 38.95597018 15.28279675 37.4375 12.625 C36.91736328 11.69816406 36.39722656 10.77132813 35.86132812 9.81640625 C34.58212166 7.53965346 33.29487762 5.26786477 32 3 C31.34 3 30.68 3 30 3 C28.70916454 4.54733237 28.70916454 4.54733237 27.46875 6.578125 C26.74751953 7.70154297 26.74751953 7.70154297 26.01171875 8.84765625 C25.51285156 9.64042969 25.01398438 10.43320312 24.5 11.25 C24.00113281 12.02730469 23.50226563 12.80460937 22.98828125 13.60546875 C20.80651963 17.02726647 18.81926398 20.36147204 17 24 C21.29 24 25.58 24 30 24 C30 26.64 30 29.28 30 32 C19.44 32 8.88 32 -2 32 C1.14873162 26.33228308 4.27731574 20.84321437 7.8125 15.4375 C8.21919922 14.81037109 8.62589844 14.18324219 9.04492188 13.53710938 C10.02733336 12.02303991 11.01327348 10.51126088 12 9 C8.04 9 4.08 9 0 9 C0 6.03 0 3.06 0 0 Z " fill="#1899d6" transform="translate(236,15)"/>
<path d="M0 0 C0.99 0.495 1.98 0.99 3 1.5 C3 0.84 3 0.18 3 -0.5 C6.63 -0.5 10.26 -0.5 14 -0.5 C14 10.06 14 20.62 14 31.5 C10.37 31.5 6.74 31.5 3 31.5 C2.67 30.84 2.34 30.18 2 29.5 C1.38125 29.995 0.7625 30.49 0.125 31 C-4.33391327 33.14027837 -8.14920208 33.53787937 -13 32.5 C-18.00514941 29.53675234 -21.26985736 26.09356796 -23 20.5 C-23.66140829 15.21642451 -23.6873339 10.85012016 -21.25 6.0625 C-15.11136712 -0.92872078 -9.09101341 -3.91726594 0 0 Z " fill="#26b0f0" transform="translate(216,15.5)"/>
<path d="M0 0 C4.76301673 2.8056126 7.9583682 6.4375523 11 11 C11.89537025 16.86155175 11.26573419 22.13135869 8.34765625 27.30859375 C6.02031718 30.22957293 3.36928792 31.44014448 0 33 C-0.99 33.495 -0.99 33.495 -2 34 C-7.87795941 34.49524244 -13.20099624 34.88372114 -18.5625 32.25 C-19.366875 31.5075 -20.17125 30.765 -21 30 C-22.11375 29.01 -22.11375 29.01 -23.25 28 C-27.00595827 23.70747627 -27.44340879 20.03664931 -27.3125 14.46484375 C-26.67015778 9.39836947 -23.6112001 6.41229411 -19.9375 3.1875 C-14.0542687 -1.19362969 -7.06796825 -1.0885591 0 0 Z " fill="#0b0b0b" transform="translate(111,14)"/>
<path d="M0 0 C4.41915215 2.58682077 7.49108428 5.38486269 9.70703125 10.09375 C9.70703125 12.73375 9.70703125 15.37375 9.70703125 18.09375 C2.11703125 18.09375 -5.47296875 18.09375 -13.29296875 18.09375 C-12.30296875 19.74375 -11.31296875 21.39375 -10.29296875 23.09375 C-6.06923755 23.57062288 -3.52384605 23.65057545 0.33203125 21.90625 C2.70703125 21.09375 2.70703125 21.09375 6.01953125 22.46875 C6.90640625 23.005 7.79328125 23.54125 8.70703125 24.09375 C7.21225011 27.89864745 5.01260911 29.75565835 1.70703125 32.09375 C-4.32713715 34.10513947 -11.05801908 34.17131502 -16.79296875 31.40625 C-20.82522229 27.67641547 -23.98853382 24.49522489 -24.49609375 18.82421875 C-24.59466331 13.47682006 -24.45440193 9.62513755 -21.29296875 5.09375 C-15.42571746 -0.80556277 -8.00499596 -3.16381442 0 0 Z " fill="#26b0f0" transform="translate(180.29296875,14.90625)"/>
<path d="M0 0 C-0.66 1.98 -1.32 3.96 -2 6 C-5.73437848 6.87867729 -9.16774573 7.08912219 -13 7 C-13 7.66 -13 8.32 -13 9 C-12.32453125 9.23074219 -11.6490625 9.46148437 -10.953125 9.69921875 C-1.54659971 13.13830964 -1.54659971 13.13830964 1 18 C1.67302373 21.95401439 1.16908585 23.67435318 -0.6875 27.25 C-3.64976576 30.77269442 -6.10067319 31.78429474 -10.6484375 32.30078125 C-16.57575282 32.32625682 -20.75015509 31.79991729 -26 29 C-25.45276317 25.62537285 -24.9451 23.91765 -23 21 C-22.2265625 21.2165625 -22.2265625 21.2165625 -21.4375 21.4375 C-18.31490429 22.15809901 -15.17449308 22.57266439 -12 23 C-11.67 22.01 -11.34 21.02 -11 20 C-12.051875 19.7525 -13.10375 19.505 -14.1875 19.25 C-17.8220558 18.21787462 -20.22677369 16.61009535 -23 14 C-24.61082802 10.77834396 -24.6006214 7.48360411 -24 4 C-18.44085369 -3.25777434 -8.01569321 -4.27503638 0 0 Z " fill="#040404" transform="translate(50,16)"/>
<path d="M0 0 C0.94488281 -0.01417969 1.88976562 -0.02835938 2.86328125 -0.04296875 C5.83156882 0.19925665 7.99617165 0.94723393 10.6875 2.1875 C10.05813561 5.12453384 9.06329827 7.52538628 7.6875 10.1875 C7.07261719 10.15269531 6.45773438 10.11789063 5.82421875 10.08203125 C4.61185547 10.04142578 4.61185547 10.04142578 3.375 10 C2.57449219 9.96519531 1.77398437 9.93039063 0.94921875 9.89453125 C-1.36282043 10.01413955 -1.36282043 10.01413955 -3.08984375 11.44921875 C-4.56907678 13.55228168 -4.65893851 14.64152329 -4.5625 17.1875 C-4.54703125 17.868125 -4.5315625 18.54875 -4.515625 19.25 C-4.36022119 21.40364892 -4.36022119 21.40364892 -3.3125 24.1875 C0.3175 24.1875 3.9475 24.1875 7.6875 24.1875 C10.6875 29.9375 10.6875 29.9375 10.6875 32.1875 C7.4439127 34.11075647 5.00076483 34.45830868 1.25 34.4375 C0.32316406 34.44265625 -0.60367188 34.4478125 -1.55859375 34.453125 C-6.83265517 33.9444212 -9.70401492 32.22957054 -13.0625 28.1875 C-13.65546875 27.48625 -14.2484375 26.785 -14.859375 26.0625 C-18.16015317 21.80343139 -17.88232848 17.39621383 -17.3125 12.1875 C-13.80110735 5.02966114 -8.05519225 0.05450062 0 0 Z " fill="#040404" transform="translate(71.3125,13.8125)"/>
<path d="M0 0 C1.32 0.66 2.64 1.32 4 2 C2.68 4.97 1.36 7.94 0 11 C-2.5390625 10.90234375 -5.078125 10.8046875 -7.6171875 10.70703125 C-8.40351563 10.80371094 -9.18984375 10.90039062 -10 11 C-12.05127844 14.07691766 -12.27260872 14.93644999 -12.4140625 18.44921875 C-12.47207031 19.72055664 -12.47207031 19.72055664 -12.53125 21.01757812 C-12.57765625 22.33918945 -12.57765625 22.33918945 -12.625 23.6875 C-12.68300781 25.02651367 -12.68300781 25.02651367 -12.7421875 26.39257812 C-12.83639651 28.59471378 -12.91928494 30.79732847 -13 33 C-16.63 33 -20.26 33 -24 33 C-24 22.44 -24 11.88 -24 1 C-20.37 1 -16.74 1 -13 1 C-12.67 1.99 -12.34 2.98 -12 4 C-11.319375 3.34 -10.63875 2.68 -9.9375 2 C-6.29057391 -0.48301351 -4.33434444 -0.47283757 0 0 Z " fill="#0b0b0b" transform="translate(151,14)"/>
<path d="M0 0 C2.4375 1 2.4375 1 4 3 C4.5659239 7.45665069 4.82483134 9.73102871 2.375 13.5 C-0.74326051 15.46942769 -2.37720527 15.67927401 -6 15 C-9.20220123 12.21914104 -9.92791739 10.59725593 -10.4375 6.375 C-10 3 -10 3 -8.9375 1.0625 C-5.87116726 -0.61903731 -3.42486249 -0.36051184 0 0 Z " fill="#ffffff" transform="translate(106,24)"/>
<path d="M0 0 C2.4375 1.0625 2.4375 1.0625 4 3 C4.73394876 7.40369259 4.48144207 9.29972063 1.9375 13 C-1 15 -1 15 -4.6875 15 C-8 14 -8 14 -10 11 C-10.54468716 7.4913658 -10.6202561 4.16754089 -8.9375 1 C-5.85873258 -0.58904125 -3.39844421 -0.35773097 0 0 Z " fill="#ffffff" transform="translate(215,24)"/>
<path d="M0 0 C7.59 0 15.18 0 23 0 C23 0.33 23 0.66 23 1 C21.948125 1.0825 20.89625 1.165 19.8125 1.25 C15.97220457 1.68441113 15.97220457 1.68441113 13.5625 4.0625 C9.82117804 6.89130441 7.62256766 6.5219028 3 6 C1 4.6875 1 4.6875 0 3 C0 2.01 0 1.02 0 0 Z " fill="#ffffff" transform="translate(167,33)"/>
<path d="M0 0 C-1.72587037 3.35585905 -2.89057701 4.92996929 -6.125 7 C-8.69260151 8.95112293 -8.99084662 9.9518274 -9.609375 13.20703125 C-9.85048762 16.47978046 -9.99039203 19.71887791 -10 23 C-10.33 23 -10.66 23 -11 23 C-11.08733513 19.91684615 -11.14050127 16.83401173 -11.1875 13.75 C-11.21263672 12.87730469 -11.23777344 12.00460938 -11.26367188 11.10546875 C-11.33702465 4.69932615 -11.33702465 4.69932615 -9.75 1.40625 C-6.64939845 -1.08530482 -3.84650382 -0.25222976 0 0 Z " fill="#ffffff" transform="translate(149,24)"/>
<path d="M0 0 C14.52 0 29.04 0 44 0 C44 0.33 44 0.66 44 1 C42.95199219 1.09087891 42.95199219 1.09087891 41.8828125 1.18359375 C40.97273438 1.26738281 40.06265625 1.35117187 39.125 1.4375 C38.22007812 1.51871094 37.31515625 1.59992187 36.3828125 1.68359375 C33.98889139 1.86989285 33.98889139 1.86989285 32 3 C31.34 2.67 30.68 2.34 30 2 C27.82325217 1.84530633 25.6421652 1.74997894 23.4609375 1.68359375 C22.15898437 1.64169922 20.85703125 1.59980469 19.515625 1.55664062 C18.13541955 1.51682701 16.75521117 1.47711478 15.375 1.4375 C13.98696585 1.39430593 12.59894472 1.35069135 11.2109375 1.30664062 C7.80739744 1.20028 4.40378222 1.09825286 1 1 C1 3.31 1 5.62 1 8 C4.96 8 8.92 8 13 8 C12.67 8.99 12.34 9.98 12 11 C12 10.34 12 9.68 12 9 C8.04 9 4.08 9 0 9 C0 6.03 0 3.06 0 0 Z " fill="#ffffff" transform="translate(236,15)"/>
<path d="M0 0 C3.0625 0.3125 3.0625 0.3125 4.9375 1.625 C6.0625 3.3125 6.0625 3.3125 6.0625 6.3125 C2.1025 6.3125 -1.8575 6.3125 -5.9375 6.3125 C-4.47848361 0.47643443 -4.47848361 0.47643443 0 0 Z " fill="#ffffff" transform="translate(172.9375,20.6875)"/>
<path d="M0 0 C0.66 0.33 1.32 0.66 2 1 C0.68 3.64 -0.64 6.28 -2 9 C-4.31 9 -6.62 9 -9 9 C-6 6 -3 3 0 0 Z " fill="#ffffff" transform="translate(275,51)"/>
</svg>